<svg width="372" height="293" viewBox="0 0 372 293" fill="none" xmlns="http://www.w3.org/2000/svg">
<g opacity="0.2">
<path d="M315.571 293.085C312.76 291.59 309.271 292.624 307.727 295.408C306.184 298.192 307.157 301.699 309.914 303.291L324.349 311.292C327.035 312.779 330.414 311.929 332.078 309.349L365.693 257.218C366.992 255.469 367.208 253.141 366.254 251.183C365.3 249.224 363.334 247.96 361.156 247.905C358.978 247.85 356.95 249.013 355.898 250.92L325.218 298.465L315.571 293.085Z" fill="#D3A221"/>
<path d="M194.165 350.4C209.655 345.959 218.611 329.802 214.169 314.312C209.728 298.823 193.57 289.867 178.081 294.308C162.592 298.75 153.636 314.907 158.077 330.396C162.535 345.873 178.678 354.821 194.165 350.4ZM181.298 305.527C190.592 302.862 200.286 308.235 202.951 317.529C205.616 326.823 200.242 336.517 190.948 339.182C181.655 341.847 171.96 336.473 169.296 327.179C166.631 317.886 172.004 308.192 181.298 305.527Z" fill="#D3A221"/>
<path d="M100.053 260.544C114.674 279.27 139.2 287.244 162.038 280.698C166.878 279.303 171.514 277.278 175.826 274.674C189.833 283.6 207.003 286.065 222.955 281.441C242.196 275.852 257.246 260.818 262.857 241.584C266.85 242.864 270.97 243.703 275.145 244.088C256.455 273.735 260.537 312.331 285.016 337.412C309.495 362.493 347.98 367.512 378.073 349.548C408.165 331.583 422.009 295.325 411.547 261.877C401.085 228.428 369.048 206.52 334.083 208.904C336.389 203.585 337.894 197.953 338.548 192.193C365.402 178.044 378.649 146.999 370.283 117.821C361.916 88.6439 334.231 69.3358 303.96 71.5672C289.345 52.8294 264.817 44.8428 241.972 51.3836C235.146 53.3274 228.741 56.5227 223.082 60.8068C208.168 47.4779 187.456 42.7367 168.229 48.2501C149.002 53.7634 133.95 68.7596 128.365 87.9664C121.296 87.3319 114.171 88.0166 107.352 89.9854C84.515 96.5362 67.9419 116.295 65.4657 139.924C38.6384 154.082 25.4115 185.109 33.7727 214.268C42.1339 243.427 69.7929 262.731 100.046 260.521L100.053 260.544ZM400.881 266.844C410.652 300.921 390.949 336.466 356.872 346.238C322.796 356.009 287.25 336.306 277.479 302.229C267.707 268.153 287.411 232.607 321.487 222.836C355.559 213.109 391.074 232.796 400.881 266.844ZM65.5732 153.509C65.9449 156.434 66.5369 159.326 67.3441 162.161C68.2324 165.259 71.4638 167.05 74.5617 166.162C77.6595 165.274 79.4507 162.042 78.5624 158.945C71.501 134.167 85.8139 108.346 110.569 101.204C115.647 99.7405 120.94 99.1695 126.214 99.5161C125.97 102.189 125.915 104.877 126.049 107.558C126.225 110.771 128.968 113.234 132.181 113.066C132.624 113.041 133.063 112.966 133.489 112.843C136.101 112.088 137.846 109.629 137.696 106.914C136.494 85.1616 150.498 65.4705 171.439 59.4657C192.38 53.4609 214.691 62.739 225.199 81.8225C226.512 84.2085 229.301 85.3688 231.919 84.6183C232.346 84.497 232.758 84.328 233.147 84.1145C234.505 83.3665 235.509 82.1088 235.938 80.619C236.368 79.1293 236.186 77.5299 235.435 76.174C234.128 73.829 232.657 71.5792 231.033 69.4413C235.321 66.3606 240.111 64.0466 245.189 62.602C269.959 55.5328 295.774 69.8632 302.874 94.6243C303.762 97.7221 306.994 99.5134 310.091 98.6251C313.189 97.7368 314.981 94.5053 314.092 91.4075C313.273 88.5695 312.24 85.7974 311.004 83.1146C337.693 84.2968 359.225 105.358 360.998 132.014C362.77 158.671 344.216 182.397 317.919 187.103C314.746 187.677 312.639 190.715 313.214 193.888C313.789 197.06 316.826 199.167 319.999 198.592C321.896 198.243 323.798 197.782 325.687 197.259C324.458 202.236 322.42 206.977 319.653 211.294C319.193 211.426 318.725 211.487 318.259 211.62C305.228 215.367 293.449 222.561 284.166 232.445C277.67 232.963 271.139 232.09 265.008 229.883C265.397 225.116 265.192 220.32 264.398 215.604C263.861 212.424 260.848 210.28 257.668 210.817C254.488 211.353 252.344 214.366 252.881 217.547C256.737 240.959 242.513 263.567 219.738 270.223C208.498 273.459 196.447 272.301 186.029 266.983C188.902 264.295 191.487 261.316 193.745 258.093C194.935 256.381 195.121 254.165 194.233 252.278C193.346 250.392 191.519 249.122 189.442 248.948C187.364 248.773 185.352 249.72 184.162 251.432C177.988 260.13 169.059 266.489 158.821 269.479C142.83 274.041 125.62 269.718 113.684 258.141C115.574 257.599 117.416 256.973 119.214 256.257C122.208 255.064 123.667 251.669 122.473 248.676C121.28 245.682 117.885 244.223 114.892 245.417C90.0712 255.426 61.6955 245.148 49.0413 221.566C36.387 197.984 43.5109 168.658 65.5732 153.509Z" fill="#D3A221"/>
<path d="M107.432 174.948L140.639 165.426L118.856 217.582C117.56 220.688 118.159 224.262 120.397 226.775C122.635 229.288 126.116 230.296 129.35 229.367L168.39 218.172C171.488 217.284 173.279 214.052 172.391 210.955C171.503 207.857 168.271 206.066 165.173 206.954L131.967 216.476L153.749 164.319C155.046 161.214 154.447 157.64 152.209 155.127C149.971 152.613 146.49 151.606 143.256 152.535L104.216 163.729C101.118 164.618 99.3266 167.849 100.215 170.947C101.103 174.045 104.335 175.836 107.432 174.948Z" fill="#D3A221"/>
<path d="M171.526 144.428L199.32 136.459L181.205 181.59C179.959 184.692 180.589 188.231 182.827 190.713C185.065 193.195 188.521 194.186 191.734 193.267L225.266 183.652C228.364 182.764 230.155 179.532 229.267 176.435C228.379 173.337 225.147 171.545 222.049 172.434L194.256 180.403L212.371 135.272C213.616 132.171 212.987 128.631 210.749 126.149C208.511 123.667 205.054 122.676 201.841 123.595L168.309 133.21C165.212 134.098 163.42 137.33 164.309 140.428C165.197 143.525 168.428 145.317 171.526 144.428Z" fill="#D3A221"/>
<path d="M235.62 113.909L258.057 107.475L243.505 145.642C242.324 148.74 242.995 152.239 245.237 154.681C247.48 157.123 250.909 158.088 254.096 157.174L282.142 149.132C285.24 148.244 287.031 145.012 286.143 141.914C285.255 138.817 282.023 137.025 278.926 137.914L256.489 144.347L271.04 106.181C272.221 103.083 271.551 99.5835 269.308 97.1417C267.066 94.7 263.636 93.7348 260.449 94.6486L232.403 102.691C229.305 103.579 227.514 106.81 228.402 109.908C229.291 113.006 232.522 114.797 235.62 113.909Z" fill="#D3A221"/>
</g>
</svg>
