<svg width="372" height="294" viewBox="0 0 372 294" fill="none" xmlns="http://www.w3.org/2000/svg">
<g opacity="0.2" clip-path="url(#clip0_5047_357)">
<path d="M277.656 347.98C270.39 354.387 262.403 360.261 253.957 365.528C211.179 367.724 172.684 355.494 139.509 329.279C137.148 327.396 133.686 327.82 131.803 330.18C129.919 332.541 130.343 336.003 132.704 337.887C168.442 366.097 209.868 379.024 255.921 376.343C256.319 376.343 256.739 376.222 257.107 376.116C257.581 375.981 258.039 375.793 258.467 375.499C267.903 369.721 276.731 363.207 284.822 356.108C287.089 354.093 287.304 350.675 285.341 348.393C283.325 346.126 279.907 345.912 277.626 347.875L277.656 347.98Z" fill="#D3A221"/>
<path d="M42.9068 164.402C66.4948 157.183 88.4049 147.089 108.036 134.405C110.581 132.765 111.314 129.369 109.674 126.824C108.034 124.279 104.638 123.546 102.093 125.186C81.9813 138.178 59.4102 148.348 34.913 155.373C32.1794 156.157 30.4694 158.923 31.058 161.769C31.858 165.75 51.8843 259.795 115.578 322.601C117.021 324.065 119.08 324.498 120.92 323.971C121.813 323.715 122.594 323.263 123.3 322.549C125.416 320.406 125.39 316.943 123.247 314.827C70.0054 262.279 47.8838 184.537 42.9068 164.402Z" fill="#D3A221"/>
<path d="M128.042 119.851C151.941 100.425 165.039 81.8201 170.372 73.2364C187.034 81.5437 244.492 104.949 326.517 83.0784C330.564 97.7904 341.492 142.844 340.226 194.181C340.132 197.224 342.553 199.716 345.58 199.758C346.151 199.765 346.707 199.719 347.233 199.568C349.493 198.92 351.136 196.913 351.172 194.457C352.748 130.116 336.209 76.9995 335.508 74.7541C334.641 71.9305 331.628 70.3484 328.789 71.1623C234.533 98.1899 171.713 61.6442 171.104 61.3068C168.504 59.7768 164.824 60.832 163.429 63.5076C163.332 63.763 151.087 87.1292 121.183 111.406C118.834 113.331 118.499 116.727 120.371 119.092C122.297 121.441 125.708 121.828 128.057 119.903L128.042 119.851Z" fill="#D3A221"/>
<path d="M258.054 328.625C254.136 332.024 249.91 335.341 245.488 338.373C140.044 339.082 92.7754 232.765 76.1553 181.55C128.238 160.415 160.938 129.817 179.876 106.58C199.24 113.202 220.045 117.306 241.635 118.796C244.655 119.011 247.245 116.732 247.46 113.712C247.675 110.692 245.396 108.103 242.376 107.888C220.387 106.399 199.403 102.062 179.917 95.0192C177.701 94.2325 175.23 94.941 173.767 96.7828C155.558 119.982 122.378 152.082 67.4712 173.288C64.8129 174.334 63.3734 177.25 64.2249 180.022C80.1543 231.606 129.9 351.321 247.324 349.338C247.827 349.308 248.263 349.24 248.736 349.104C249.262 348.953 249.81 348.682 250.29 348.374C255.583 344.808 260.664 340.905 265.303 336.844C267.57 334.828 267.784 331.41 265.821 329.129C263.859 326.847 260.373 326.595 258.106 328.61L258.054 328.625Z" fill="#D3A221"/>
<path d="M317.937 199.777C318.508 199.784 319.063 199.738 319.589 199.587C321.797 198.954 323.493 196.932 323.528 194.475C324.539 160.107 319.702 128.555 315.498 108.141C314.894 105.242 312.068 103.322 309.154 103.873C294.846 106.553 280.553 108.092 266.603 108.451C263.606 108.514 261.197 111.025 261.275 114.075C261.338 117.072 263.85 119.481 266.899 119.403C279.669 119.098 292.776 117.786 305.868 115.625C309.665 135.415 313.5 163.671 312.651 194.238C312.556 197.28 314.924 199.787 317.967 199.882L317.937 199.777Z" fill="#D3A221"/>
<path d="M312.382 212.349C274.69 223.157 252.831 262.593 263.639 300.285C274.447 337.977 313.882 359.837 351.574 349.029C365.19 345.125 377.149 337.428 386.243 326.685C388.194 324.362 387.89 320.922 385.62 318.956C383.297 317.005 379.841 317.256 377.891 319.579C370.237 328.601 360.11 335.146 348.597 338.447C316.74 347.582 283.325 329.059 274.19 297.203C265.055 265.346 283.525 231.945 315.434 222.795C347.344 213.646 380.707 232.183 389.842 264.04C393.489 276.762 392.909 290.013 388.195 302.345C387.124 305.155 388.547 308.331 391.357 309.403C394.168 310.475 397.344 309.052 398.415 306.241C403.968 291.678 404.651 276.007 400.355 261.025C389.547 223.333 350.112 201.474 312.42 212.282L312.382 212.349Z" fill="#D3A221"/>
<path d="M268.782 179.338C277.456 176.851 282.517 167.719 280.03 159.046C277.543 150.372 268.411 145.31 259.737 147.797C251.063 150.284 246.002 159.416 248.489 168.09C248.775 169.089 249.167 170.057 249.648 170.943L230.174 191.319C223.83 187.051 216.061 184.955 208.129 185.864L201.678 163.364C207.158 159.461 209.915 152.412 207.941 145.525C205.453 136.851 196.322 131.789 187.648 134.277C178.974 136.764 173.912 145.896 176.399 154.57C178.359 161.404 184.433 165.92 191.164 166.379L197.615 188.879C193.058 191.039 189.185 194.198 186.168 197.964L160.261 183.603C160.672 181.267 160.602 178.841 159.894 176.37C157.407 167.696 148.275 162.634 139.601 165.121C130.927 167.609 125.865 176.74 128.352 185.414C130.84 194.088 139.971 199.15 148.645 196.663C151.063 195.969 153.158 194.743 154.974 193.141L180.882 207.502C179.286 212.055 178.66 217.014 179.243 222.024L156.796 228.46C152.892 222.98 145.843 220.223 138.957 222.197C130.283 224.685 125.221 233.816 127.708 242.49C130.195 251.164 139.327 256.226 148.001 253.739C154.835 251.779 159.351 245.705 159.811 238.974L182.258 232.538C185.833 240.046 192.051 245.659 199.415 248.724L194.882 269.026C194.064 269.147 193.177 269.23 192.336 269.472C183.662 271.959 178.601 281.091 181.088 289.764C183.575 298.438 192.707 303.5 201.381 301.013C210.054 298.526 215.116 289.394 212.629 280.72C211.468 276.672 208.851 273.497 205.582 271.42L210.114 251.118C213.638 251.302 217.288 250.938 220.915 249.898C238.316 244.909 248.402 226.713 243.412 209.313C242.297 205.422 240.476 201.849 238.182 198.808L257.746 178.35C261.143 179.879 265.087 180.341 268.977 179.226L268.782 179.338ZM198.276 290.582C195.384 291.411 192.341 289.724 191.511 286.832C190.682 283.941 192.37 280.897 195.261 280.068C198.152 279.239 201.196 280.926 202.025 283.818C202.854 286.709 201.167 289.753 198.276 290.582ZM190.61 144.806C193.501 143.976 196.545 145.664 197.374 148.555C198.203 151.446 196.516 154.49 193.625 155.319C190.733 156.148 187.689 154.461 186.86 151.57C186.031 148.679 187.719 145.635 190.61 144.806ZM138.814 182.414C137.984 179.523 139.672 176.479 142.563 175.65C145.454 174.821 148.498 176.508 149.327 179.4C149.734 180.819 149.533 182.299 148.858 183.517C148.858 183.517 148.858 183.517 148.805 183.532C148.753 183.547 148.805 183.532 148.821 183.584C148.146 184.802 147.05 185.742 145.578 186.164C142.687 186.993 139.643 185.306 138.814 182.414ZM144.881 243.255C141.99 244.084 138.946 242.397 138.117 239.506C137.288 236.614 138.975 233.57 141.866 232.741C144.758 231.912 147.802 233.6 148.631 236.491C149.46 239.382 147.772 242.426 144.881 243.255ZM217.743 239.43C206.125 242.761 194.017 236.049 190.686 224.432C187.354 212.814 194.066 200.706 205.684 197.375C217.302 194.043 229.41 200.755 232.741 212.373C236.072 223.99 229.361 236.098 217.743 239.43ZM262.737 158.258C265.628 157.429 268.672 159.116 269.501 162.008C270.33 164.899 268.643 167.943 265.752 168.772C262.861 169.601 259.817 167.914 258.988 165.023C258.158 162.131 259.846 159.087 262.737 158.258Z" fill="#D3A221"/>
<path d="M332.032 320.555L353.059 314.525C355.95 313.696 357.638 310.652 356.809 307.761L352.286 291.99L368.057 287.468C370.948 286.639 372.636 283.595 371.807 280.703L365.777 259.676C364.948 256.785 361.904 255.097 359.013 255.926L343.242 260.449L338.72 244.678C337.891 241.787 334.847 240.099 331.956 240.928L310.928 246.958C308.037 247.787 306.349 250.831 307.179 253.722L311.701 269.493L295.93 274.015C293.039 274.844 291.351 277.888 292.181 280.779L298.21 301.807C299.039 304.698 302.083 306.386 304.974 305.556L320.745 301.034L325.267 316.805C326.096 319.696 329.14 321.384 332.032 320.555ZM307.216 293.535L304.202 283.021L319.972 278.499C322.864 277.67 324.551 274.626 323.722 271.735L319.2 255.964L329.714 252.95L334.236 268.72C335.065 271.612 338.109 273.299 341 272.47L356.771 267.948L359.785 278.461L344.015 282.984C341.123 283.813 339.436 286.857 340.265 289.748L344.787 305.519L334.274 308.533L329.751 292.763C328.922 289.871 325.878 288.184 322.987 289.013L307.216 293.535Z" fill="#D3A221"/>
</g>
<defs>
<clipPath id="clip0_5047_357">
<rect width="350" height="350" fill="white" transform="translate(0.542969 97.0156) rotate(-16)"/>
</clipPath>
</defs>
</svg>
